<svg xmlns="http://www.w3.org/2000/svg" xmlns:xlink="http://www.w3.org/1999/xlink" viewBox="0 0 2282.664 2090.28">

  <defs>
    <filter id="Path_195" x="0" y="0" width="2282.664" height="2090.28" filterUnits="userSpaceOnUse">
      <feOffset dy="20" input="SourceAlpha"/>
      <feGaussianBlur stdDeviation="20" result="blur"/>
      <feFlood flood-opacity="0.31"/>
      <feComposite operator="in" in2="blur"/>
    </filter>
    <filter id="Path_195-2" x="0" y="0" width="2282.664" height="2090.28" filterUnits="userSpaceOnUse">
      <feOffset dy="20" input="SourceAlpha"/>
      <feGaussianBlur stdDeviation="15" result="blur-2"/>
      <feFlood flood-color="#fff" flood-opacity="0.169" result="color"/>
      <feComposite operator="out" in="SourceGraphic" in2="blur-2"/>
      <feComposite operator="in" in="color"/>
      <feComposite operator="in" in2="SourceGraphic"/>
    </filter>
  </defs>
  <g data-type="innerShadowGroup">
    <g transform="matrix(1, 0, 0, 1, 0, 0)" filter="url(#Path_195)">
      <path id="Path_195-3" data-name="Path 195" d="M-64.609,2777.666C138.953,2750.614-5.32,2155.952,236.2,2285.213s432.244-400.978,651.408-266.981,558.7,27.254,639.983-52.8S1709.3,2167.7,1790.38,1888.778s127.59-83.229,119.641-4.875,43.558-82.093,34.067-238.469-108.633-247.831,31.389-570.857-289.569,65.863-483.751-91.981-225.978-95.388-406.532-21.576-449.684,118.1-838.047-73.812S-35.609,909.92-50.372,958.75-109.161,1173.407-67,1293.409s-10.841,211.477-10.841,354.182S-268.171,2804.717-64.609,2777.666Z" transform="translate(219.14 -768.42)" fill="#4f4f4f" stroke="#707070" stroke-width="1"/>
    </g>
    <path id="Path_195-4" data-name="Path 195" d="M-64.609,2777.666C138.953,2750.614-5.32,2155.952,236.2,2285.213s432.244-400.978,651.408-266.981,558.7,27.254,639.983-52.8S1709.3,2167.7,1790.38,1888.778s127.59-83.229,119.641-4.875,43.558-82.093,34.067-238.469-108.633-247.831,31.389-570.857-289.569,65.863-483.751-91.981-225.978-95.388-406.532-21.576-449.684,118.1-838.047-73.812S-35.609,909.92-50.372,958.75-109.161,1173.407-67,1293.409s-10.841,211.477-10.841,354.182S-268.171,2804.717-64.609,2777.666Z" transform="translate(219.14 -768.418)" fill="#4f4f4f"/>
    <g transform="matrix(1, 0, 0, 1, 0, 0)" filter="url(#Path_195-2)">
      <path id="Path_195-5" data-name="Path 195" d="M-64.609,2777.666C138.953,2750.614-5.32,2155.952,236.2,2285.213s432.244-400.978,651.408-266.981,558.7,27.254,639.983-52.8S1709.3,2167.7,1790.38,1888.778s127.59-83.229,119.641-4.875,43.558-82.093,34.067-238.469-108.633-247.831,31.389-570.857-289.569,65.863-483.751-91.981-225.978-95.388-406.532-21.576-449.684,118.1-838.047-73.812S-35.609,909.92-50.372,958.75-109.161,1173.407-67,1293.409s-10.841,211.477-10.841,354.182S-268.171,2804.717-64.609,2777.666Z" transform="translate(219.14 -768.42)" fill="#fff"/>
    </g>
    <path id="Path_195-6" data-name="Path 195" d="M-64.609,2777.666C138.953,2750.614-5.32,2155.952,236.2,2285.213s432.244-400.978,651.408-266.981,558.7,27.254,639.983-52.8S1709.3,2167.7,1790.38,1888.778s127.59-83.229,119.641-4.875,43.558-82.093,34.067-238.469-108.633-247.831,31.389-570.857-289.569,65.863-483.751-91.981-225.978-95.388-406.532-21.576-449.684,118.1-838.047-73.812S-35.609,909.92-50.372,958.75-109.161,1173.407-67,1293.409s-10.841,211.477-10.841,354.182S-268.171,2804.717-64.609,2777.666Z" transform="translate(219.14 -768.418)" fill="none" stroke="#707070" stroke-width="1"/>
  </g>
</svg>
