<svg xmlns="http://www.w3.org/2000/svg" id="cart-icon-svg" viewBox="0 0 100 100" preserveAspectRatio="xMidYMid meet">

  <g id="Shopping_basket" data-name="Shopping basket" transform="translate(31.68 31.68)">
    <g id="Basket" transform="translate(-31.68 -31.68)">
      <path id="Path_140" data-name="Path 140" d="M4.131,46.318a4.268,4.268,0,0,0,4.191,3.967H52.014a4.267,4.267,0,0,0,4.191-3.967l1.363-22.344H2.77ZM44.546,31.644c0-1.093.668-1.987,1.485-1.987s1.485.895,1.485,1.987v11.97c0,1.093-.669,1.987-1.485,1.987s-1.485-.895-1.485-1.987Zm-10.573,0c0-1.093.666-1.987,1.484-1.987s1.485.895,1.485,1.987v11.97c0,1.093-.669,1.987-1.485,1.987s-1.484-.895-1.484-1.987Zm-10.575,0c0-1.093.668-1.987,1.485-1.987s1.484.895,1.484,1.987v11.97c0,1.093-.668,1.987-1.484,1.987S23.4,44.706,23.4,43.614Zm-10.575,0c0-1.093.668-1.987,1.485-1.987s1.485.895,1.485,1.987v11.97c0,1.093-.668,1.987-1.485,1.987s-1.485-.895-1.485-1.987Z" transform="translate(1.511 13.074)"/>
      <path id="Path_141" data-name="Path 141" d="M27.064,26.057l-4.2-4.214a3.99,3.99,0,0,1,0-5.622l1.27-1.273H1.98A1.988,1.988,0,0,0,0,16.933v7.988a1.989,1.989,0,0,0,1.98,1.987H28.325A3.919,3.919,0,0,1,27.064,26.057Z" transform="translate(0 8.151)"/>
      <path id="Path_142" data-name="Path 142" d="M50.3,14.947H32.655L21.581,26.058a3.885,3.885,0,0,1-1.258.85H50.3a1.989,1.989,0,0,0,1.98-1.987V16.933A1.988,1.988,0,0,0,50.3,14.947Z" transform="translate(11.083 8.151)"/>
      <path id="Path_143" data-name="Path 143" d="M15.906,28.589l4.2,4.216a1.981,1.981,0,0,0,2.8,0L48.017,7.6a2,2,0,0,0,0-2.809L43.815.58a1.979,1.979,0,0,0-2.8,0l-25.11,25.2A2,2,0,0,0,15.906,28.589Zm5.2-3.251a2.18,2.18,0,1,1-2.173,2.18A2.176,2.176,0,0,1,21.109,25.338Z" transform="translate(8.359)"/>
    </g>
  </g>
</svg>
