<svg xmlns="http://www.w3.org/2000/svg" id="bobs-branding-logo" viewBox="0 0 128 128" preserveAspectRatio="xMidYMid meet">
  <g id="Logo" transform="translate(64 64)">
    <g id="Group_12" data-name="Group 12" transform="translate(-64 -64)">
      <circle id="Ellipse_5" data-name="Ellipse 5" cx="64" cy="64" r="64"/>
      <g id="Group_10" data-name="Group 10" transform="translate(73.504 71.588)">
        <path id="Path_44" data-name="Path 44" d="M102.367,149.434l-1.78-5.527-.22.07a1.129,1.129,0,0,1-.79.039.753.753,0,0,1-.331-1.027,1.131,1.131,0,0,1,.664-.43l3.542-1.141a3.053,3.053,0,0,1,2.267.049,2.313,2.313,0,0,1,1.312,1.429,2.242,2.242,0,0,1,.1.927,2.453,2.453,0,0,1-.3.926,3.052,3.052,0,0,1,1.3.611,2.351,2.351,0,0,1,.724,1.1,2.233,2.233,0,0,1,.081,1.077,1.738,1.738,0,0,1-.261.7,3.023,3.023,0,0,1-.709.749,4.026,4.026,0,0,1-1.216.594l-4.148,1.336a1.128,1.128,0,0,1-.79.038.692.692,0,0,1-.383-.443.68.68,0,0,1,.057-.577,1.126,1.126,0,0,1,.661-.429Zm.294-3.928,1.55-.5a2.328,2.328,0,0,0,1.25-.867.893.893,0,0,0,.145-.822.856.856,0,0,0-.56-.538,1.885,1.885,0,0,0-1.206.081l-1.84.592Zm1.119,3.473,2.44-.786a2.248,2.248,0,0,0,1.13-.646.667.667,0,0,0,.092-.638,1.178,1.178,0,0,0-.8-.67,2.557,2.557,0,0,0-1.655.077l-1.867.6Z" transform="translate(-99.153 -108.12)" fill="#fff"/>
        <path id="Path_45" data-name="Path 45" d="M119.737,144.429l-.176-.3a4.826,4.826,0,0,1-.837,1.007,5.764,5.764,0,0,1-.981.746,2.891,2.891,0,0,1-1.994.434,1.827,1.827,0,0,1-1.351-.832,2.273,2.273,0,0,1-.055-1.977,3.969,3.969,0,0,1,1.867-2.02,9.742,9.742,0,0,1,1.416-.661l-.179-.306a.646.646,0,0,0-.521-.325,1.973,1.973,0,0,0-1.047.37,7.427,7.427,0,0,0-1.343,1.088,2.8,2.8,0,0,1-.477.388.672.672,0,0,1-.542.07.753.753,0,0,1-.454-.368.7.7,0,0,1-.1-.317.58.58,0,0,1,.064-.293,2.368,2.368,0,0,1,.368-.446,10.152,10.152,0,0,1,.846-.776,6.643,6.643,0,0,1,.848-.6,3.4,3.4,0,0,1,2.154-.569,1.959,1.959,0,0,1,1.484,1.022l1.544,2.637.219-.128a1.128,1.128,0,0,1,.763-.208.744.744,0,0,1,.542.924,1.13,1.13,0,0,1-.555.563Zm-1.343-2.293a8.667,8.667,0,0,0-1.506.681,2.71,2.71,0,0,0-1.119,1.168.756.756,0,0,0-.061.7.392.392,0,0,0,.34.195,1.782,1.782,0,0,0,.976-.3,4.127,4.127,0,0,0,.941-.794,4.461,4.461,0,0,0,.751-1.1Z" transform="translate(-102.725 -107.472)" fill="#fff"/>
        <path id="Path_46" data-name="Path 46" d="M125.886,135.771l1.675,1.814-1.277,1.179a1.131,1.131,0,0,1-.7.367.692.692,0,0,1-.533-.242.679.679,0,0,1-.191-.548,1.135,1.135,0,0,1,.419-.667l.186-.172-4.358-4.716-.186.171a1.127,1.127,0,0,1-.7.367.691.691,0,0,1-.534-.242.681.681,0,0,1-.193-.545,1.13,1.13,0,0,1,.421-.67l1.276-1.179,3.4,3.675.216-1.472a1.091,1.091,0,0,1-.477-.249.7.7,0,0,1-.2-.549,1.113,1.113,0,0,1,.418-.667l1.244-1.15a1.131,1.131,0,0,1,.7-.367.691.691,0,0,1,.533.242.683.683,0,0,1,.194.546,1.135,1.135,0,0,1-.421.67l-.3.279-.331,2.3,3.235-.072.32-.3a1.131,1.131,0,0,1,.7-.366.69.69,0,0,1,.534.242.681.681,0,0,1,.193.545,1.13,1.13,0,0,1-.421.67l-1.255,1.159a1.129,1.129,0,0,1-.7.367.693.693,0,0,1-.534-.242.838.838,0,0,1-.2-.577l-2.1.045Z" transform="translate(-104.413 -105.193)" fill="#fff"/>
        <path id="Path_47" data-name="Path 47" d="M138.446,122.362l-3.483,4.994a1.905,1.905,0,0,0,1.237-.139,3.091,3.091,0,0,0,1.2-1.106,9.217,9.217,0,0,0,.964-2,3.856,3.856,0,0,1,.329-.724.669.669,0,0,1,.458-.289.734.734,0,0,1,.549.136.65.65,0,0,1,.279.46,3.47,3.47,0,0,1-.389,1.449,10.193,10.193,0,0,1-1.036,1.908,3.979,3.979,0,0,1-2.455,1.761,3.268,3.268,0,0,1-2.641-.54,3.182,3.182,0,0,1-1.426-2.4,3.988,3.988,0,0,1,.718-2.743,4.238,4.238,0,0,1,1.212-1.18,3.53,3.53,0,0,1,1.208-.53,4.337,4.337,0,0,1,1.58.051,3.257,3.257,0,0,1,1.178.54Zm-2.157.5a2.328,2.328,0,0,0-1.29.185,2.871,2.871,0,0,0-1.5,2.144,2.37,2.37,0,0,0,.268,1.28Z" transform="translate(-107.653 -102.982)" fill="#fff"/>
        <path id="Path_48" data-name="Path 48" d="M138.548,112.446l.856.354a8.13,8.13,0,0,1-.267-1.7,2.629,2.629,0,0,1,.178-1.019,2.249,2.249,0,0,1,1.031-1.093.986.986,0,0,1,.859-.146.732.732,0,0,1,.414.41.724.724,0,0,1,0,.576.886.886,0,0,1-.475.43.867.867,0,0,0-.461.4,2.047,2.047,0,0,0,.006,1.009,14.7,14.7,0,0,0,.494,1.876l2.068.854.807-1.953a1.13,1.13,0,0,1,.482-.628.7.7,0,0,1,.586,0,.685.685,0,0,1,.4.414,1.132,1.132,0,0,1-.1.785l-1.711,4.142a1.132,1.132,0,0,1-.483.627.694.694,0,0,1-.585,0,.685.685,0,0,1-.4-.414,1.132,1.132,0,0,1,.1-.785l.337-.816-3.332-1.377-.2.5a1.134,1.134,0,0,1-.483.628.7.7,0,0,1-.586,0,.688.688,0,0,1-.4-.414,1.133,1.133,0,0,1,.1-.785Z" transform="translate(-109.109 -99.73)" fill="#fff"/>
        <path id="Path_49" data-name="Path 49" d="M148.4,102.51,143,104.175a.858.858,0,0,1-.337.5.745.745,0,0,1-1.01-.217,1.13,1.13,0,0,1-.071-.787l.233-1.334a1.126,1.126,0,0,1,.334-.717.744.744,0,0,1,1.056.184,1.055,1.055,0,0,1,.079.745l3.66-1.139-3.06-2.3a1.023,1.023,0,0,1-.325.66.745.745,0,0,1-1.056-.185,1.133,1.133,0,0,1-.071-.788l.24-1.376a1.117,1.117,0,0,1,.333-.71.7.7,0,0,1,.571-.132.7.7,0,0,1,.462.279.856.856,0,0,1,.133.612l6.019,4.5a1.59,1.59,0,0,1,.233-.7.715.715,0,0,1,.687-.233.685.685,0,0,1,.485.316,1.133,1.133,0,0,1,.072.788l-.557,3.188a1.129,1.129,0,0,1-.334.716.683.683,0,0,1-.563.133.691.691,0,0,1-.492-.317,1.128,1.128,0,0,1-.072-.788l.254-1.455Z" transform="translate(-110.119 -96.568)" fill="#fff"/>
      </g>
      <g id="Group_11" data-name="Group 11" transform="translate(7.437 7.102)">
        <path id="Path_50" data-name="Path 50" d="M17.333,82.045,11.544,81.6l-.018.231a1.124,1.124,0,0,1-.264.746.751.751,0,0,1-1.075-.082,1.125,1.125,0,0,1-.148-.777l.282-3.71a3.051,3.051,0,0,1,.9-2.081,2.314,2.314,0,0,1,1.819-.675,2.232,2.232,0,0,1,.895.257,2.425,2.425,0,0,1,.744.63,3.072,3.072,0,0,1,1.058-.976,2.345,2.345,0,0,1,1.294-.254,2.239,2.239,0,0,1,1.027.332,1.737,1.737,0,0,1,.55.506,3.022,3.022,0,0,1,.426.94,4.021,4.021,0,0,1,.09,1.35L18.8,82.388a1.13,1.13,0,0,1-.264.746.69.69,0,0,1-.555.187.679.679,0,0,1-.513-.271,1.13,1.13,0,0,1-.148-.774Zm-3.525-1.757.124-1.624A2.331,2.331,0,0,0,13.6,77.18a.892.892,0,0,0-.706-.446.856.856,0,0,0-.71.316A1.888,1.888,0,0,0,11.8,78.2l-.147,1.927Zm3.638.277.194-2.556a2.252,2.252,0,0,0-.17-1.291.672.672,0,0,0-.557-.325,1.18,1.18,0,0,0-.922.489,2.554,2.554,0,0,0-.555,1.562L15.287,80.4Z" transform="translate(-10.032 -26.479)" fill="#fff"/>
        <path id="Path_51" data-name="Path 51" d="M19.655,63.218a3.2,3.2,0,0,1,1.48.878,3.34,3.34,0,0,1,.875,1.689,4.271,4.271,0,0,1-.98,3.773A3.367,3.367,0,0,1,19.443,70.6a3.191,3.191,0,0,1-1.747.044,3.568,3.568,0,0,1-2.515-2.629,4.029,4.029,0,0,1,.994-3.751,3.435,3.435,0,0,1,1.668-1.027A3.529,3.529,0,0,1,19.655,63.218Zm-.368,1.437a1.981,1.981,0,0,0-1.4.164,2.508,2.508,0,0,0-1.054,3.368,2.006,2.006,0,0,0,1.272,1.03,1.741,1.741,0,0,0,1.429-.329,2.626,2.626,0,0,0,.849-3.243A1.745,1.745,0,0,0,19.286,64.655Z" transform="translate(-11.333 -23.427)" fill="#fff"/>
        <path id="Path_52" data-name="Path 52" d="M15.087,54.5l3.016,1.41a4.508,4.508,0,0,1-.014-1.225,3.735,3.735,0,0,1,.319-1.1,3.569,3.569,0,0,1,2.071-1.917,3.494,3.494,0,0,1,2.782.118,3.177,3.177,0,0,1,1.749,1.944,3.758,3.758,0,0,1-.265,2.849,4.221,4.221,0,0,1-.622.972,4.536,4.536,0,0,1-.857.774l.328.153-.736,1.574a1.128,1.128,0,0,1-.51.6.694.694,0,0,1-.586-.022.68.68,0,0,1-.384-.435,1.135,1.135,0,0,1,.135-.775l.107-.23L15.8,56.47,15.7,56.7a1.131,1.131,0,0,1-.51.6.694.694,0,0,1-.586-.022.687.687,0,0,1-.385-.431,1.137,1.137,0,0,1,.136-.78Zm7.584-1.354a2.1,2.1,0,0,0-1.683-.075,2.265,2.265,0,0,0-1.334,2.853,2.082,2.082,0,0,0,1.118,1.234,1.733,1.733,0,0,0,1.462.044,2.817,2.817,0,0,0,1.387-2.968A1.7,1.7,0,0,0,22.671,53.143Z" transform="translate(-11.107 -20.406)" fill="#fff"/>
        <path id="Path_53" data-name="Path 53" d="M38,34.356,37.38,33.2l.543-.532a1.3,1.3,0,0,1,.532-.368.722.722,0,0,1,.7.217.736.736,0,0,1,.225.494.626.626,0,0,1-.164.469,4.421,4.421,0,0,1,.54,1.2,1.631,1.631,0,0,1,.615-.449.7.7,0,0,1,.7.208.686.686,0,0,1,.208.54,1.13,1.13,0,0,1-.4.682l-.632.618-.285-.044a2.12,2.12,0,0,1-.223.663,3.814,3.814,0,0,1-.675.843,2.87,2.87,0,0,1-1.92.941,2.215,2.215,0,0,1-1.7-.71,2.709,2.709,0,0,1-.683-1.211,2.9,2.9,0,0,1,.033-1.535,4.581,4.581,0,0,1-.872-.3,1.967,1.967,0,0,1-.508-.38,2.154,2.154,0,0,1-.615-1.6,2.231,2.231,0,0,1,1.086-1.923,2.776,2.776,0,0,1,.517-.238,1.092,1.092,0,0,1,.2-.356.706.706,0,0,1,.527-.207.723.723,0,0,1,.522.224.679.679,0,0,1,.205.381,1.488,1.488,0,0,1-.093.593l-.213.673a2.887,2.887,0,0,0-.708.094.9.9,0,0,0-.33.211.784.784,0,0,0-.249.563.713.713,0,0,0,.2.537,2.005,2.005,0,0,0,.917.328Zm-1.733,1.168a1.238,1.238,0,0,0,.225,1.41.807.807,0,0,0,.657.269,1.545,1.545,0,0,0,.871-.518,1.615,1.615,0,0,0,.438-.732Z" transform="translate(-15.92 -14.922)" fill="#fff"/>
        <path id="Path_54" data-name="Path 54" d="M54.036,24.244l-2.342-5.313-.212.093a1.132,1.132,0,0,1-.782.119.751.751,0,0,1-.434-.987,1.127,1.127,0,0,1,.615-.5l3.4-1.5a3.053,3.053,0,0,1,2.26-.185A2.314,2.314,0,0,1,58,17.26a2.236,2.236,0,0,1,.2.91,2.435,2.435,0,0,1-.205.953,3.056,3.056,0,0,1,1.36.473,2.348,2.348,0,0,1,.834,1.021,2.246,2.246,0,0,1,.191,1.063,1.751,1.751,0,0,1-.188.723,2.989,2.989,0,0,1-.629.819,4,4,0,0,1-1.148.715L54.422,25.7a1.132,1.132,0,0,1-.782.119.7.7,0,0,1-.426-.4.683.683,0,0,1,0-.58,1.132,1.132,0,0,1,.612-.5Zm-.113-3.937,1.49-.658a2.332,2.332,0,0,0,1.154-.99.9.9,0,0,0,.059-.833.855.855,0,0,0-.613-.477,1.892,1.892,0,0,0-1.192.2l-1.769.78Zm1.472,3.339,2.345-1.033a2.258,2.258,0,0,0,1.058-.759.671.671,0,0,0,.025-.644,1.183,1.183,0,0,0-.867-.583,2.557,2.557,0,0,0-1.639.248l-1.8.792Z" transform="translate(-20.424 -11.198)" fill="#fff"/>
        <path id="Path_55" data-name="Path 55" d="M70.52,21.076l-.081-.338a4.787,4.787,0,0,1-1.094.718,5.693,5.693,0,0,1-1.156.428,2.892,2.892,0,0,1-2.034-.166,1.829,1.829,0,0,1-1.05-1.19,2.274,2.274,0,0,1,.524-1.907A3.969,3.969,0,0,1,68,17.233a9.668,9.668,0,0,1,1.548-.22l-.082-.345a.645.645,0,0,0-.4-.462,1.976,1.976,0,0,0-1.109.049,7.41,7.41,0,0,0-1.6.649,2.759,2.759,0,0,1-.569.232.672.672,0,0,1-.539-.091.754.754,0,0,1-.328-.483.689.689,0,0,1-.005-.334.58.58,0,0,1,.146-.262,2.372,2.372,0,0,1,.483-.32,10.377,10.377,0,0,1,1.035-.5,6.683,6.683,0,0,1,.986-.328,3.41,3.41,0,0,1,2.227.083,1.962,1.962,0,0,1,1.121,1.411l.708,2.972.247-.059a1.133,1.133,0,0,1,.791.024.742.742,0,0,1,.248,1.042,1.135,1.135,0,0,1-.7.378ZM69.9,18.492a8.653,8.653,0,0,0-1.639.211,2.712,2.712,0,0,0-1.411.791.758.758,0,0,0-.262.65.4.4,0,0,0,.269.286,1.789,1.789,0,0,0,1.02,0,4.14,4.14,0,0,0,1.131-.486,4.464,4.464,0,0,0,1.041-.835Z" transform="translate(-24.224 -10.899)" fill="#fff"/>
        <path id="Path_56" data-name="Path 56" d="M77.891,9.58,78.07,12.9a4.52,4.52,0,0,1,1.074-.59,3.733,3.733,0,0,1,1.122-.238A3.57,3.57,0,0,1,82.933,13a3.491,3.491,0,0,1,1.208,2.509,3.178,3.178,0,0,1-.89,2.458,3.758,3.758,0,0,1-2.638,1.11,4.291,4.291,0,0,1-1.15-.09,4.529,4.529,0,0,1-1.087-.391l.019.362-1.735.093a1.134,1.134,0,0,1-.774-.165.692.692,0,0,1-.257-.526.677.677,0,0,1,.2-.543,1.131,1.131,0,0,1,.748-.248l.253-.013-.345-6.412-.253.013a1.127,1.127,0,0,1-.774-.165.693.693,0,0,1-.257-.526.684.684,0,0,1,.2-.543,1.129,1.129,0,0,1,.752-.247Zm4.77,6.051a2.108,2.108,0,0,0-.727-1.52,2.264,2.264,0,0,0-3.145.169,2.084,2.084,0,0,0-.561,1.568,1.73,1.73,0,0,0,.651,1.309,2.815,2.815,0,0,0,3.271-.176A1.7,1.7,0,0,0,82.662,15.631Z" transform="translate(-26.891 -9.58)" fill="#fff"/>
        <path id="Path_57" data-name="Path 57" d="M94.5,15.53a2.953,2.953,0,0,0-.713-.428,3.059,3.059,0,0,0-.812-.215A2.809,2.809,0,0,0,91.587,15q-.238.095-.256.238-.021.166.261.361a4.086,4.086,0,0,0,1,.351,12.125,12.125,0,0,1,1.99.657,2.5,2.5,0,0,1,1.065.936,1.782,1.782,0,0,1,.271,1.157,1.619,1.619,0,0,1-.861,1.235,4.166,4.166,0,0,1-2.689.445,5.933,5.933,0,0,1-1.168-.259,4.341,4.341,0,0,1-.954-.451.827.827,0,0,1-.248.115.658.658,0,0,1-.257.019.711.711,0,0,1-.521-.3,1.128,1.128,0,0,1-.11-.784l.062-.5a1.133,1.133,0,0,1,.3-.732.692.692,0,0,1,.563-.159.683.683,0,0,1,.427.2.987.987,0,0,1,.217.541,2.282,2.282,0,0,0,.757.536,3.73,3.73,0,0,0,1.074.284,3.264,3.264,0,0,0,1.612-.12q.286-.125.308-.3.036-.288-.322-.522a5.686,5.686,0,0,0-1.533-.512,4.5,4.5,0,0,1-2.282-1.014,1.668,1.668,0,0,1-.434-1.367,1.618,1.618,0,0,1,.832-1.231,3.73,3.73,0,0,1,2.46-.423,4.875,4.875,0,0,1,.968.219,4.109,4.109,0,0,1,.864.411,1.294,1.294,0,0,1,.274-.119.569.569,0,0,1,.225-.023.651.651,0,0,1,.475.289,1.149,1.149,0,0,1,.107.783l-.044.36a1.3,1.3,0,0,1-.2.639A.756.756,0,0,1,94.708,16,.75.75,0,0,1,94.5,15.53Z" transform="translate(-30.483 -10.561)" fill="#fff"/>
      </g>
      <circle id="Ellipse_6" data-name="Ellipse 6" cx="17" cy="17" r="17" transform="translate(46 47)" fill="#fff"/>
      <path id="Path_58" data-name="Path 58" d="M78.547,135.2a48.368,48.368,0,0,1-26.687-1.483c-11.7-4.18-21.194-13.545-25.2-19.274A43.269,43.269,0,0,1,18.5,88.5" transform="translate(-4.786 -22.893)" fill="none" stroke="#fff" stroke-width="2.286"/>
      <path id="Path_59" data-name="Path 59" d="M137.566,77.582c2.224-11.861.351-25.439-6.672-35.583-6.672-9.637-17.015-18.466-30.394-21.5" transform="translate(-25.997 -5.303)" fill="none" stroke="#fff" stroke-width="1.868"/>
    </g>
  </g>
</svg>
