<svg xmlns="http://www.w3.org/2000/svg" id="login-logo-svg" viewBox="0 0 100 100" preserveAspectRatio="xMidYMid meet">
  <path id="Union_3" data-name="Union 3" d="M-5520.309,135a32.47,32.47,0,0,1,10.759-19.932,32.359,32.359,0,0,1,9.782-5.918,32.211,32.211,0,0,1,6.984-1.819A16.506,16.506,0,0,1-5504.618,91.5a16.5,16.5,0,0,1,16.5-16.5,16.5,16.5,0,0,1,16.5,16.5,16.507,16.507,0,0,1-11.834,15.831,32.207,32.207,0,0,1,6.984,1.819,32.359,32.359,0,0,1,9.782,5.918A32.473,32.473,0,0,1-5455.927,135h-64.382Z" transform="translate(5520.309 -74.999)"/>
</svg>